<svg id="Layer_1" enable-background="new 0 0 464.003 464.003" height="512" viewBox="0 0 464.003 464.003" width="512" xmlns="http://www.w3.org/2000/svg"><path d="m463.999 297.641c.28-18.95-22.33-16.91-23.7-17.42.95-1.42 20.4-12.74 8.93-28.03-32.07-42.77-94.7 8.54-94.7 8.54s29.44-75.42-21.14-92.7c-17.94-6.13-22.99 16-23.9 17.15-1.05-1.34-5.8-23.33-23.89-17.15-50.59 17.28-21.14 92.7-21.14 92.7s-62.63-51.31-94.7-8.54c-11.37 15.17 8.12 26.81 8.93 28.03-1.6.59-23.98-1.69-23.7 17.42.81 53.45 81.64 48.75 81.64 48.75s-68.16 43.71-37.39 87.43c10.91 15.5 28.01.56 29.41.16.07 1.71-9.01 22.29 9.25 27.93 51.08 15.75 71.59-62.58 71.59-62.58s20.52 78.33 71.6 62.58c18.11-5.59 9.19-26.46 9.25-27.93 1.64.47 18.41 15.47 29.41-.16 30.77-43.72-37.39-87.43-37.39-87.43s80.84 4.7 81.64-48.75z" fill="#ffa4b8"/><path d="m223.3 437.301c-6.25 3.49-16.6 7.12-24.06-3.48-19.325-27.458.378-54.915 17.699-71.534 13.828-13.267 37.329 6.21 23.137 22.092-12.551 14.045-23.472 33.08-16.776 52.922z" fill="#ffbfcb"/><path d="m199.759 267.191c-11.37 15.17 8.12 26.81 8.93 28.03-1.6.59-23.98-1.69-23.7 17.42.2 13.17 5.26 22.81 12.77 29.85-20.84-5.29-42.35-17.4-42.77-44.85-.28-19.11 22.1-16.83 23.7-17.42-.81-1.22-20.3-12.86-8.93-28.03 24.44-32.6 66.63-10.55 85.32 1.79-18.789-6.22-40.37-6.72-55.32 13.21z" fill="#ffbfcb"/><path d="m308.929 183.881c-23.463 12.304-24.891 40.394-21.774 62.293 2.315 16.269-21.514 19.975-25.793 5.07-5.974-20.812-15.249-69.721 24.237-83.213 15.91-5.44 21.501 10.92 23.33 15.85z" fill="#ffbfcb"/><g fill="#ff8ca5"><path d="m355.816 394.501c-2.467 0-4.898-1.136-6.465-3.279l-21.609-29.56c-2.607-3.567-1.83-8.572 1.736-11.179 3.568-2.609 8.573-1.83 11.18 1.737l21.609 29.56c3.897 5.331-.007 12.721-6.451 12.721z"/><path d="m263.172 394.501c-6.449 0-10.346-7.393-6.451-12.722l21.61-29.56c2.606-3.566 7.611-4.345 11.18-1.737 3.566 2.608 4.344 7.613 1.736 11.18l-21.61 29.56c-1.566 2.143-3.999 3.279-6.465 3.279z"/><path d="m349.389 317.991c-4.418 0-8.005-3.582-8.005-8 0-3.641 2.428-6.713 5.755-7.682l34.511-11.404c4.196-1.386 8.72.891 10.105 5.086 1.387 4.195-.891 8.72-5.086 10.106-37.699 12.457-35.441 11.894-37.28 11.894z"/><path d="m269.611 317.993c-1.832 0 .455.574-37.291-11.896-4.195-1.386-6.473-5.91-5.087-10.106 1.388-4.195 5.909-6.473 10.106-5.087l34.78 11.49c4.195 1.386 6.473 5.91 5.087 10.106-1.111 3.362-4.238 5.493-7.595 5.493z"/><path d="m309.499 289.071c-4.418 0-8-3.582-8-8v-36.61c0-4.418 3.582-8 8-8s8 3.582 8 8v36.61c0 4.418-3.582 8-8 8z"/></g><path d="m349.389 309.991c5.596 17.122-.363 36.135-15.19 46.95-14.85 10.822-34.83 10.625-49.41 0-15.017-10.965-20.709-30.034-15.18-46.95 5.48-16.79 21.27-28.92 39.89-28.92s34.4 12.13 39.89 28.92z" fill="#ffd9e0"/><path d="m171.949 102.971s55.22-22.97 38.49-58.74c-5.92-12.69-20.29-4.03-21.36-3.93.17-1.25 9.44-15.04-3.12-21.5-35.11-18.06-60.16 36.25-60.16 36.25s-4.79-59.62-43.97-54.77c-13.9 1.72-10.11 18.06-10.34 19.11-1.14-.55-11.39-13.63-21.41-3.68-28.03 27.81 15.88 68.41 15.88 68.41s-58.18-13.87-65.67 24.9c-2.66 13.75 14.05 15.19 14.98 15.74-.87.91-16.48 6.62-10.12 19.22 17.62 34.92 68.96 6.6 69.96 6.05-.55.91-30.85 51.2 3.4 70.15 12.25 6.77 18.78-8.67 19.59-9.39.6 1.11 1.21 17.72 15.16 15.57 38.57-5.96 27.64-63.33 27.38-64.67.78.89 39.19 45.13 67.75 18.44 10.23-9.56-2.43-20.55-2.87-21.54 1.24-.22 17.23 4.33 19.49-9.6 6.331-38.98-53.06-46.02-53.06-46.02z" fill="#ffa4b8"/><path d="m93.679 217.171c-3.27 3.64-8.33 6.79-15.17 3.01-12.638-6.995-16.488-18.255-16.287-29.729.392-22.348 36.276-18.903 31.447 3.285-1.675 7.693-2.192 15.951.01 23.434z" fill="#ffbfcb"/><path d="m112.759 15.181c-15.116 1.464-10.978 17.879-11.27 19.21-1.14-.55-11.39-13.63-21.41-3.68-28.03 27.81 15.88 68.41 15.88 68.41s-58.18-13.87-65.67 24.9c-2.66 13.75 14.05 15.19 14.98 15.74-.87.91-16.48 6.62-10.12 19.22.42.83.86 1.63 1.32 2.39-12.24.3-24.39-3.66-31.32-17.39-6.36-12.6 9.25-18.31 10.12-19.22-.93-.55-17.64-1.99-14.98-15.74 7.49-38.77 65.67-24.9 65.67-24.9s-43.91-40.6-15.88-68.41c10.02-9.95 20.27 3.13 21.41 3.68.23-1.05-3.56-17.39 10.34-19.11 14.541-1.8 24.35 5.28 30.93 14.9z" fill="#ffbfcb"/><path d="m140.659 98.991c6.62 13.62.94 30.03-12.68 36.65s-30.04.94-36.66-12.68-.94-30.03 12.69-36.65c13.62-6.62 30.03-.95 36.65 12.68z" fill="#ffd9e0"/><path d="m444.839 104.131c13.74 13.09 24.18 38.35 16.63 66.53-28.51 6.2-53.25-5.42-65.67-19.76-14.72-17-.85-35.92 15.72-32.62-2.51-16.71 17.04-29.67 33.32-14.15z" fill="#ffa4b8"/><path d="m417.3 166.391c-8.05-3.555-15.741-8.838-21.5-15.49-14.807-17.107-.599-36.06 15.72-32.62-1.73-11.5 6.99-21.22 17.91-21.11 9.541 24.493 7.078 51.078-12.13 69.22z" fill="#ffbfcb"/><path d="m329.669 36.211c18.79-5.11 36.24 15.53 20.67 36.24-13.14 17.48-40.65 32.81-73.91 27.95-10.92-31.79-.94-61.66 13.81-77.81 17.48-19.12 40.99-5.79 39.43 13.62z" fill="#ffa4b8"/><path d="m286.609 101.281c-3.532-.096-7.353-.458-10.18-.88-10.92-31.79-.94-61.66 13.81-77.81 5.252-5.721 11.99-9.561 19.62-9.27 11.053 34.094 4.639 67.011-23.25 87.96z" fill="#ffbfcb"/><path d="m100.199 295.111c1.02 37.22-19.43 65.48-40.37 77.65-24.81 14.43-45.24-7.46-37.17-27.45-21.54-.83-33.15-28.43-9.83-45.15 19.681-14.12 53.84-21.21 87.37-5.05z" fill="#ffa4b8"/><path d="m35.85 376.001c-11.881-4.385-18.344-17.914-13.19-30.69-21.54-.83-33.15-28.43-9.83-45.15 13.039-9.363 30.355-14.24 46.66-14.31 16.03 32.46 8.11 70.53-23.64 90.15z" fill="#ffbfcb"/></svg>